<svg width="437" height="405" viewBox="0 0 437 405" fill="none" xmlns="http://www.w3.org/2000/svg">
<path d="M306.41 298.384C281.296 302.89 255.716 304.643 230.28 304.07C204.826 303.605 179.461 300.887 154.831 295.504C131.346 290.39 108.541 282.379 87.9734 271.452C88.8864 267.107 89.9067 262.779 91.0344 258.505C94.1848 246.595 98.1587 234.918 102.723 223.509C111.799 200.637 123.326 178.748 136.68 158.147C149.944 137.475 164.998 118.001 181.699 100.297C197.666 83.3617 215.602 68.3581 234.791 56.2694C237.924 58.9161 241.002 61.6342 244.027 64.4239C253.157 72.8288 261.767 81.7881 269.822 91.2123C286.021 109.971 300.324 130.358 312.585 151.835C324.99 173.222 335.444 195.665 343.427 218.788C350.874 240.336 355.725 262.725 357.264 284.793C340.814 290.909 323.683 295.29 306.41 298.384ZM436.115 224.045C435.381 223.723 434.504 224.063 434.181 224.796V224.814C429.044 236.527 420.595 246.398 411.019 254.678C402.874 261.688 393.816 267.59 384.329 272.686C380.248 251.102 373.482 230.447 365.516 210.544C355.689 186.295 343.427 163.244 329.268 141.552C315.002 119.932 298.748 99.6708 280.633 81.2158C271.558 72.0241 261.946 63.351 251.85 55.3037C249.612 53.5155 247.357 51.7808 245.066 50.0641L248.789 47.9539L252.673 45.9332C257.793 43.1614 263.038 40.8187 268.246 38.5119L272.185 36.9561L274.154 36.1692C274.816 35.9189 275.478 35.7043 276.14 35.4718L280.096 34.077L284.052 32.8788L286.039 32.2708L288.008 31.788L291.982 30.8223C294.613 30.3573 297.263 29.7493 299.858 29.5169C302.49 29.0877 305.049 29.034 307.645 28.8552L311.475 28.9267C311.78 28.9267 312.12 28.9088 312.424 28.9446L313.355 29.034C313.982 29.1055 314.608 29.1592 315.235 29.2128C320.211 29.6957 325.026 30.8223 329.573 32.6464C334.101 34.5419 338.308 37.1528 342.246 40.3538L345.128 42.8931C346.005 43.8409 346.864 44.7887 347.795 45.7365C348.278 46.1835 348.672 46.7022 349.084 47.2387L350.319 48.7944C350.731 49.313 351.178 49.8137 351.572 50.3681L352.7 52.067L353.827 53.7479L354.4 54.6063L354.919 55.5005L357.014 59.1306C357.64 60.3824 358.231 61.6879 358.839 62.9576C359.144 63.6013 359.484 64.2272 359.77 64.8889L360.576 66.8917C362.849 72.2029 364.514 77.9075 366.035 83.7194C367.074 87.9218 367.915 92.2137 368.649 96.5592C362.688 98.7051 358.428 104.374 358.428 111.062C358.428 119.574 365.337 126.477 373.858 126.477C382.36 126.477 389.288 119.574 389.288 111.062C389.288 104.285 384.902 98.5442 378.816 96.4877C378.941 94.9676 379.013 93.4655 379.138 91.9455C379.425 88.6729 379.353 85.3825 379.407 82.0563C379.21 75.4397 378.744 68.6979 377.312 61.9919L376.829 59.4704C376.668 58.6121 376.4 57.7716 376.185 56.949C375.719 55.2859 375.29 53.587 374.789 51.9239L373.034 46.9346L372.587 45.6829L372.05 44.4668L370.922 42.0169C367.897 35.5254 364.084 29.1234 358.947 23.5977C353.899 17.9825 347.849 13.1541 341.154 9.36301C327.586 1.90592 311.869 -0.776464 297.352 0.189203C293.683 0.332264 290.138 0.886614 286.54 1.33368C284.768 1.63769 283.032 2.01321 281.278 2.35298L278.664 2.88948L276.087 3.55115C274.386 3.99822 272.668 4.4274 270.985 4.92811L265.991 6.57331C265.186 6.84155 264.344 7.10981 263.521 7.39594L261.104 8.34371L256.271 10.2572C249.988 13.029 243.831 16.0512 238.013 19.4847C236.545 20.3252 235.095 21.1835 233.645 22.0598L229.421 24.7958C226.575 26.5841 223.854 28.5512 221.115 30.4646C220.184 31.1442 219.272 31.8237 218.359 32.5212C207.601 26.4768 196.323 21.2729 184.545 17.5176C172.176 13.7443 159.198 11.4553 146.257 12.2958C145.523 12.3495 144.914 12.9753 144.896 13.7443C144.878 14.549 145.523 15.2286 146.346 15.2464C158.805 15.5147 170.959 18.7693 182.433 23.3831C192.35 27.4425 201.801 32.5748 210.787 38.4046C193.531 52.3173 178.244 68.0899 164.139 84.5956C147.348 104.374 132.634 125.69 119.89 148.061C107.324 170.522 96.7803 194.092 88.8506 218.537C83.9638 233.934 80.0437 249.689 77.645 265.676C69.7331 260.955 62.3045 255.715 55.4846 250.118C51.1169 246.399 46.8746 242.572 43.2945 238.405C42.8291 237.886 42.3458 237.403 41.8983 236.867L40.6453 235.275L39.3744 233.702L38.73 232.897L38.1572 232.092L35.848 228.82L33.8611 225.458C31.2835 220.951 29.3861 216.23 28.2404 211.384C27.0053 206.556 26.701 201.513 27.1485 196.452C27.596 191.373 28.9564 186.277 30.9792 181.198C33.0377 176.155 35.8659 171.202 39.2133 166.409C45.9258 156.842 54.7865 148.115 64.5242 140.157C67.9252 137.385 71.4694 134.703 75.0853 132.092C77.5376 133.755 80.4912 134.721 83.6774 134.721C92.1979 134.721 99.1074 127.818 99.1074 119.306C99.1074 110.794 92.1979 103.891 83.6774 103.891C75.1569 103.891 68.2474 110.794 68.2474 119.306C68.2474 120.808 68.4801 122.257 68.8739 123.616C64.9538 125.207 61.0873 126.924 57.2746 128.82C45.1203 134.918 33.4136 142.679 23.3 153.015C22.0649 154.32 20.7761 155.608 19.6126 157.021C18.4132 158.398 17.2139 159.792 16.0862 161.259C13.8308 164.192 11.7364 167.303 9.83901 170.594C6.00836 177.139 3.10853 184.489 1.44381 192.267C-0.185107 200.046 -0.435706 208.219 0.692007 216.195C1.83762 224.152 4.30785 231.842 7.65519 238.924C11.0025 246.041 15.406 252.336 20.1674 258.147C24.9289 263.995 30.299 269.038 35.8659 273.705L40.1083 277.103C41.5403 278.194 43.026 279.195 44.4759 280.25C47.3579 282.414 50.4009 284.185 53.3902 286.134C54.8939 287.082 56.4512 287.886 57.9906 288.763C59.5121 289.603 61.0336 290.533 62.6088 291.302C65.7414 292.858 68.8202 294.539 72.0065 295.952C73.0089 296.399 74.0292 296.846 75.0495 297.293C75.0137 302.675 75.2285 308.076 75.6223 313.441C76.213 319.879 77.1259 326.263 78.5221 332.557C81.422 345.093 86.255 357.379 94.0595 367.661C94.507 368.269 95.3662 368.43 96.0106 368.037C96.6909 367.608 96.9057 366.696 96.4761 365.998C89.9067 355.537 86.3803 343.52 84.644 331.431C83.8206 325.351 83.4268 319.235 83.3731 313.101C83.391 309.042 83.5163 304.964 83.7848 300.905C105.534 309.435 127.945 314.854 150.391 318.627C176.955 323.044 203.788 324.51 230.459 323.652C257.095 322.597 283.623 319.092 309.506 312.779C322.413 309.56 335.157 305.572 347.562 300.762C350.999 299.439 354.436 298.044 357.819 296.577C358.016 305.948 357.497 315.175 356.333 324.063C356.244 324.761 356.172 325.458 356.065 326.155L355.689 328.194C355.42 329.553 355.242 330.93 354.973 332.271C354.346 334.936 353.792 337.636 353.004 340.175C352.36 342.822 351.357 345.236 350.552 347.74C349.496 350.1 348.583 352.568 347.33 354.75C342.783 363.888 336.052 371.059 327.496 375.995C325.348 377.228 323.075 378.248 320.694 379.16C318.313 380.036 315.843 380.751 313.283 381.359C308.128 382.45 302.669 382.969 297.03 382.879C285.717 382.736 273.921 380.376 262.25 376.781C256.576 375.047 250.901 372.99 245.263 370.719C245.603 369.485 245.8 368.18 245.8 366.821C245.8 358.326 238.872 351.406 230.37 351.406C221.849 351.406 214.94 358.326 214.94 366.821C214.94 375.333 221.849 382.236 230.37 382.236C234.326 382.236 237.941 380.733 240.662 378.284C245.782 382.182 251.152 385.794 256.808 389.085C268.264 395.719 280.92 401.03 294.846 403.57C298.301 404.231 301.881 404.589 305.479 404.875C309.095 405.072 312.764 405.036 316.47 404.768C320.175 404.446 323.916 403.963 327.621 403.069C331.327 402.157 334.996 401.03 338.576 399.528C342.139 398.026 345.647 396.291 348.887 394.11L351.357 392.536C352.216 392.035 352.932 391.392 353.72 390.801L356.047 389.013C356.799 388.405 357.586 387.815 358.267 387.118C359.699 385.794 361.095 384.435 362.491 383.076L366.304 378.695C366.966 377.98 367.539 377.211 368.094 376.442L369.776 374.117C370.331 373.33 370.922 372.561 371.441 371.774L372.927 369.36C374.985 366.123 376.543 362.761 378.207 359.399C379.604 356.002 381.054 352.568 382.092 349.099C383.309 345.648 384.061 342.143 384.938 338.655C385.332 336.903 385.636 335.15 385.94 333.416L386.406 330.787C386.549 329.911 386.638 329.035 386.764 328.158L387.372 322.937L387.73 317.715L387.909 315.122C387.963 314.246 387.927 313.387 387.963 312.529L387.999 307.343C388.035 305.626 387.891 303.927 387.838 302.21C387.748 300.512 387.712 298.795 387.569 297.096L387.14 292.017L386.907 289.478L386.603 286.974C386.388 285.311 386.173 283.684 385.922 282.039C396.484 275.512 406.508 268.037 415.297 259.22C419.969 254.446 424.265 249.295 427.988 243.734C431.693 238.172 434.79 232.164 436.92 225.869C437.171 225.154 436.813 224.349 436.115 224.045Z" fill="#FF9E01"/>
<path d="M176.829 244.258C173.679 254.576 179.765 271.708 184.508 282.634C189.377 283.314 194.317 283.868 199.294 284.369L180.051 244.025C179.371 242.613 177.276 242.756 176.829 244.258Z" fill="#FF9E01"/>
<path d="M141.751 206.404C140.48 203.829 139.46 201.236 138.637 198.661C137.974 196.604 137.473 194.53 137.079 192.455C130.313 204.866 124.37 217.473 119.358 230.152C115.026 240.935 111.446 251.576 108.689 261.715C124.119 268.689 140.874 274.161 158.649 278.042C165.183 279.455 171.841 280.689 178.608 281.744C167.993 260.034 148.875 220.942 141.751 206.404Z" fill="#FF9E01"/>
<path d="M267.666 209.451C267.666 205.91 264.785 203.031 261.258 203.031C257.714 203.031 254.832 205.91 254.832 209.451C254.832 212.992 257.714 215.853 261.258 215.853C264.785 215.853 267.666 212.992 267.666 209.451Z" fill="#FF9E01"/>
<path d="M326.511 224.621C319.064 203.09 309.183 181.613 297.101 160.815L297.047 160.708C285.179 139.928 271.45 120.472 256.217 102.839C248.949 94.3452 241.252 86.298 233.251 78.8409C219.682 88.4975 206.758 99.7994 194.729 112.568C188.894 118.737 183.238 125.211 177.742 131.935C205.702 126.32 229.187 148.637 233.483 162.264C239.373 180.969 250.059 181.398 259.152 183.24C271.682 185.905 276.891 193.344 279.057 199.084C280.328 202.428 280.507 206.059 279.845 209.564C277.769 220.508 283.425 224.639 285.34 227.428C293.968 238.033 295.4 261.066 295.4 261.549C295.4 262.014 294.344 262.371 293.968 260.744C284.929 227.107 274.529 225.712 269.248 228.716C263.967 231.702 258.043 232.257 258.043 232.257C258.043 232.257 228.99 229.932 205.434 232.436C202.444 232.757 199.598 234.099 198.345 236.817C191.472 251.695 198.882 273.262 203.894 284.796C212.683 285.565 221.616 286.03 230.673 286.191C233.645 286.263 236.652 286.298 239.605 286.298C261.408 286.298 282.834 284.439 303.241 280.79C315.502 278.591 327.137 275.783 338.021 272.439C335.908 256.72 332.06 240.697 326.511 224.621Z" fill="#FF9E01"/>
</svg>
